<?xml version="1.0" encoding="utf-8"?>
<!-- Generator: Adobe Illustrator 18.0.0, SVG Export Plug-In . SVG Version: 6.00 Build 0)  -->
<!DOCTYPE svg PUBLIC "-//W3C//DTD SVG 1.1//EN" "http://www.w3.org/Graphics/SVG/1.1/DTD/svg11.dtd">
<svg version="1.1" xmlns="http://www.w3.org/2000/svg" xmlns:xlink="http://www.w3.org/1999/xlink" x="0px" y="0px"
	 viewBox="0 0 510 525" enable-background="new 0 0 510 525" xml:space="preserve">
<g id="Layer_1">
</g>
<g id="Art">
	<polygon fill="#009999" stroke="#000000" stroke-miterlimit="10" points="3.9,329.8 255.3,184.7 506.6,329.8 255.3,475 	"/>
	<polygon fill="#789900" stroke="#000000" stroke-miterlimit="10" points="255.3,184.7 255.3,50.7 3.9,195.9 3.9,329.8 	"/>
	<polygon fill="#789900" stroke="#000000" stroke-miterlimit="10" points="506.6,329.8 506.6,195.9 255.3,50.7 255.3,184.7 	"/>
	<polygon fill="#520166" stroke="#000000" stroke-miterlimit="10" points="61.9,274 61.9,184.7 100.6,162.4 100.6,251.7 	"/>
	<line fill="none" stroke="#000000" stroke-miterlimit="10" x1="61.9" y1="207" x2="100.6" y2="184.7"/>
	<polygon fill="#5B3A00" stroke="#000000" stroke-miterlimit="10" points="390.6,307.5 371.3,318.7 390.6,329.8 410,318.7 	"/>
	<line fill="#5B3A00" stroke="#000000" stroke-miterlimit="10" x1="410" y1="341" x2="410" y2="318.7"/>
	<line fill="#5B3A00" stroke="#000000" stroke-miterlimit="10" x1="371.3" y1="318.7" x2="371.3" y2="341"/>
	<line fill="#5B3A00" stroke="#000000" stroke-miterlimit="10" x1="390.6" y1="329.8" x2="390.6" y2="352.2"/>
	<path fill="#5B3A00" stroke="#000000" stroke-miterlimit="10" d="M390.6,307.5"/>
	<g>
		<polygon fill="#5B3A00" stroke="#000000" stroke-miterlimit="10" points="468,285.2 429.3,307.5 352,262.9 390.6,240.5 		"/>
		<line fill="none" stroke="#000000" stroke-miterlimit="10" x1="429.3" y1="329.8" x2="429.3" y2="307.5"/>
		<line fill="none" stroke="#000000" stroke-miterlimit="10" x1="468" y1="307.5" x2="468" y2="285.2"/>
		<line fill="none" stroke="#000000" stroke-miterlimit="10" x1="352" y1="285.2" x2="352" y2="262.9"/>
	</g>
	<polygon fill="#7C7C7C" stroke="#000000" stroke-miterlimit="10" points="408.7,273.9 395.7,281.4 421.6,296.4 434.6,288.9 	"/>
	<g>
		<path d="M390.6,260.5c-4.9-2.8-8.9-0.5-8.9,5.1s4,12.6,8.9,15.4c4.9,2.8,8.9,0.5,8.9-5.1C399.5,270.3,395.5,263.4,390.6,260.5z"/>
		<path fill="none" stroke="#000000" stroke-miterlimit="10" d="M390.6,260.5c-4.9-2.8-8.9-0.5-8.9,5.1s4,12.6,8.9,15.4
			c4.9,2.8,8.9,0.5,8.9-5.1C399.5,270.3,395.5,263.4,390.6,260.5z"/>
	</g>
	<path stroke="#000000" stroke-miterlimit="10" d="M391.6,281.7l4.6,2.6c7.6,4.4,12.3,12.5,12.3,21.3v27L372.8,312v-19.5
		C372.8,282.9,383.2,276.9,391.6,281.7z"/>
	<polygon stroke="#000000" stroke-miterlimit="10" points="402.3,329 402.3,349.6 395.3,345.5 395.3,325 	"/>
	<polygon stroke="#000000" stroke-miterlimit="10" points="376.8,314.3 376.8,334.9 382.7,338.3 382.7,317.7 	"/>
	<polygon fill="#5B3A00" stroke="#000000" stroke-miterlimit="10" points="371.3,296.3 390.6,307.5 390.6,329.8 371.3,318.7 	"/>
	<path fill="none" stroke="#000000" stroke-miterlimit="10" d="M371.3,274"/>
	<polygon stroke="#000000" stroke-miterlimit="10" points="429.3,268.8 420.2,274 429.3,279.3 438.4,274 	"/>
	<polygon fill="#00CBE0" stroke="#000000" stroke-miterlimit="10" points="429.3,274 448.6,285.2 448.6,262.9 410,240.5 410,262.9 	
		"/>
	<polygon fill="none" stroke="#000000" stroke-miterlimit="10" points="408.7,273.9 395.7,281.4 421.6,296.4 434.6,288.9 	"/>
</g>
</svg>
