<?xml version="1.0" encoding="utf-8"?>
<!-- Generator: Adobe Illustrator 18.0.0, SVG Export Plug-In . SVG Version: 6.00 Build 0)  -->
<!DOCTYPE svg PUBLIC "-//W3C//DTD SVG 1.1//EN" "http://www.w3.org/Graphics/SVG/1.1/DTD/svg11.dtd">
<svg version="1.1" id="Layer_1" xmlns="http://www.w3.org/2000/svg" xmlns:xlink="http://www.w3.org/1999/xlink" x="0px" y="0px"
	 viewBox="0 0 512 512" enable-background="new 0 0 512 512" xml:space="preserve">
<g id="Art">
	<polygon fill="#009999" stroke="#000000" stroke-miterlimit="10" points="11.1,321.6 256.3,180.1 501.4,321.6 256.3,463.2 	"/>
	<polygon fill="#789900" stroke="#000000" stroke-miterlimit="10" points="256.3,180.1 256.3,49.4 11.1,191 11.1,321.6 	"/>
	<polygon fill="#789900" stroke="#000000" stroke-miterlimit="10" points="501.4,321.6 501.4,191 256.3,49.4 256.3,180.1 	"/>
	<g>
		<polygon fill="#5B3A00" stroke="#000000" stroke-miterlimit="10" points="463.7,278.1 426,299.9 350.6,256.4 388.2,234.5 		"/>
		<line fill="none" stroke="#000000" stroke-miterlimit="10" x1="426" y1="321.6" x2="426" y2="299.9"/>
		<line fill="none" stroke="#000000" stroke-miterlimit="10" x1="463.7" y1="299.9" x2="463.7" y2="278.1"/>
		<line fill="none" stroke="#000000" stroke-miterlimit="10" x1="350.6" y1="278.1" x2="350.6" y2="256.4"/>
	</g>
	<polygon fill="#520166" stroke="#000000" stroke-miterlimit="10" points="67.7,267.2 67.7,180.1 105.4,158.4 105.4,245.5 	"/>
	<polygon fill="#7C7C7C" stroke="#000000" stroke-miterlimit="10" points="405.9,267.1 393.2,274.4 418.5,289.1 431.2,281.7 	"/>
	<line fill="none" stroke="#000000" stroke-miterlimit="10" x1="67.7" y1="201.9" x2="105.4" y2="180.1"/>
	<path fill="#5B3A00" stroke="#000000" stroke-miterlimit="10" d="M388.2,299.9"/>
	<path fill="none" stroke="#000000" stroke-miterlimit="10" d="M369.4,267.2"/>
	<polygon stroke="#000000" stroke-miterlimit="10" points="426,262.1 417.1,267.2 426,272.4 434.9,267.2 	"/>
	<polygon fill="#00CBE0" stroke="#000000" stroke-miterlimit="10" points="426,267.2 444.8,278.1 444.8,256.4 407.2,234.5 
		407.2,256.4 	"/>
	<polygon fill="none" stroke="#000000" stroke-miterlimit="10" points="405.9,267.1 393.2,274.4 418.5,289.1 431.2,281.7 	"/>
	<g id="ChairB">
		<polygon fill="#5B3A00" stroke="#000000" stroke-miterlimit="10" points="394.6,292.5 375.8,303.4 394.6,314.2 413.5,303.4 		"/>
		<line fill="none" stroke="#000000" stroke-miterlimit="10" x1="413.5" y1="325.2" x2="413.5" y2="303.4"/>
		<line fill="none" stroke="#000000" stroke-miterlimit="10" x1="375.8" y1="303.4" x2="375.8" y2="325.2"/>
		<line fill="none" stroke="#000000" stroke-miterlimit="10" x1="394.6" y1="314.2" x2="394.6" y2="336.1"/>
	</g>
	<g id="pl">
		<g>
			<path d="M394.5,248c-4.8-2.7-8.7-0.5-8.7,5s3.9,12.3,8.7,15c4.8,2.7,8.7,0.5,8.7-5C403.2,257.6,399.3,250.9,394.5,248z"/>
			<path fill="none" stroke="#000000" stroke-miterlimit="10" d="M394.5,248c-4.8-2.7-8.7-0.5-8.7,5s3.9,12.3,8.7,15
				c4.8,2.7,8.7,0.5,8.7-5C403.2,257.6,399.3,250.9,394.5,248z"/>
		</g>
		<path stroke="#000000" stroke-miterlimit="10" d="M395.5,268.7l4.5,2.5c7.4,4.3,12,12.2,12,20.8v26.3l-34.8-20.1v-19
			C377.2,269.9,387.3,264,395.5,268.7z"/>
		<polygon stroke="#000000" stroke-miterlimit="10" points="405.9,314.8 405.9,334.9 399.1,330.9 399.1,310.9 		"/>
		<polygon stroke="#000000" stroke-miterlimit="10" points="381.1,300.5 381.1,320.6 386.8,323.9 386.8,303.8 		"/>
	</g>
	<polygon id="ChairH" fill="#5B3A00" stroke="#000000" stroke-miterlimit="10" points="375.8,281.6 394.6,292.5 394.6,314.2 
		375.8,303.4 	"/>
</g>
</svg>
